<svg xmlns="http://www.w3.org/2000/svg" viewBox="0 0 420 520" role="img" aria-labelledby="title desc">
  <title id="title">Today's printable coloring page placeholder</title>
  <desc id="desc">A black and white line drawing of flowers, rolling hills, and a sun.</desc>
  <rect width="420" height="520" fill="#fffdf8"/>
  <g fill="none" stroke="#2c2635" stroke-width="8" stroke-linecap="round" stroke-linejoin="round">
    <rect x="34" y="34" width="352" height="452" rx="18"/>
    <circle cx="318" cy="114" r="39"/>
    <path d="M318 49v-26M318 205v-26M253 114h-26M409 114h-26M272 68l-18-18M382 178l-18-18M272 160l-18 18M382 50l-18 18"/>
    <path d="M78 395c46-80 101-119 164-116 57 3 96 36 121 98"/>
    <path d="M85 456c43-41 86-57 130-48 37 8 76 3 118-15"/>
    <path d="M143 297c-21-26-20-56 3-66 15-7 29 4 35 22 8-19 25-31 42-22 23 13 19 48-6 70-21 18-48 27-74-4Z"/>
    <path d="M206 358c-18-23-17-50 3-59 14-6 26 4 31 20 7-17 22-28 37-20 20 11 17 42-5 62-18 16-42 24-66-3Z"/>
    <path d="M137 299c-19 37-27 75-23 114M209 362c-12 28-17 53-14 77"/>
    <path d="M116 371c-28-4-48-20-59-48 33-5 56 8 70 38M198 416c25-24 51-30 80-18-25 26-52 34-82 25"/>
  </g>
</svg>
